<?xml version="1.0" encoding="utf-8"?>
<!-- Generator: Adobe Illustrator 19.0.0, SVG Export Plug-In . SVG Version: 6.00 Build 0)  -->
<svg version="1.1" id="Layer_1" xmlns="http://www.w3.org/2000/svg" xmlns:xlink="http://www.w3.org/1999/xlink" x="0px" y="0px"
	 viewBox="53.8 274.8 243.3 243.3" style="enable-background:new 53.8 274.8 243.3 243.3;" xml:space="preserve">
<style type="text/css">
	.st0{fill:url(#SVGID_1_);enable-background:new    ;}
	.st1{fill:#FFFFFF;enable-background:new    ;}
</style>
<title>Asset 2</title>
<g>
	<linearGradient id="SVGID_1_" gradientUnits="userSpaceOnUse" x1="141.1989" y1="317.3697" x2="223.6214" y2="507.5127">
		<stop  offset="0" style="stop-color:#01C3CC"/>
		<stop  offset="0.51" style="stop-color:#4569E0"/>
		<stop  offset="0.998" style="stop-color:#7428EF"/>
		<stop  offset="1" style="stop-color:#7428EF"/>
	</linearGradient>
	<circle class="st0" cx="175.5" cy="396.5" r="121.7"/>
	<path class="st1" d="M269.5,407.8c-0.3,0-0.6,0.2-0.8,0.6c-1.9,5.6-4.6,8.9-6.8,8.9c-1.2,0-1.7-1.4-1.7-3.6c0-5.5,3.3-17,4.9-22.3
		c0.2-0.6,0.3-1.2,0.3-1.7c0-1.5-0.8-2.3-2.9-2.3c-2.3,0-4.6,0.9-7,5c-0.8-3.6-3.3-5.2-6.7-5.2c-4,0-7.8,2.5-10.9,6.7
		c-3.1,4.1-6.8,5.5-9.6,4.8c2-4.9,2.7-8.5,2.7-11.3c0-4.3-2.1-6.8-5.5-6.8c-5.2,0-8.2,4.9-8.2,10.1c0,4,1.8,8.1,5.8,10.1
		c-3.4,7.6-8.3,14.5-10.1,14.5c-2.4,0-3.1-11.8-3-20.1c0.1-4.8,0.5-5.1,0.5-6.5c0-0.8-0.5-1.4-2.7-1.4c-5.1,0-6.7,4.3-6.9,9.2
		c-0.1,1.9-0.4,3.8-0.9,5.6c-2.1,7.6-6.5,13.3-9.4,13.3c-1.3,0-1.7-1.3-1.7-3.1c0-5.5,3.1-12.3,3.1-18.1c0-4.3-1.9-7-5.4-7
		c-4.2,0-9.7,5-14.9,14.2c1.7-7.1,2.4-14-2.7-14c-1.1,0-2.2,0.3-3.1,0.8c-0.7,0.3-1.1,1-1,1.7c0.5,7.6-6.1,26.9-12.3,26.9
		c-1.1,0-1.7-1.2-1.7-3.2c0-5.5,3.3-17,4.9-22.3c0.2-0.7,0.3-1.3,0.3-1.8c0-1.5-0.9-2.2-2.9-2.2c-2.2,0-4.6,0.9-7,5
		c-0.8-3.6-3.3-5.2-6.7-5.2c-5.6,0-11.9,5.9-14.7,13.7c-3.7,10.3-11.1,20.3-21.1,20.3c-9.1,0-13.9-7.6-13.9-19.5
		c0-17.3,12.6-31.3,22.1-31.3c4.5,0,6.6,2.9,6.6,7.2c0,5.3-3,7.8-3,9.8c0,0.6,0.5,1.2,1.5,1.2c4.1,0,8.9-4.8,8.9-11.3
		c0-6.5-5.3-11.3-14.7-11.3c-15.5,0-31.1,15.6-31.1,35.6c0,15.9,7.8,25.5,21.5,25.5c9.3,0,17.4-7.2,21.7-15.6
		c0.5,7,3.7,10.6,8.5,10.6c4.3,0,7.8-2.5,10.4-7.1c1,4.7,3.7,7,7.2,7c4,0,7.4-2.5,10.6-7.3c-0.1,3.7,0.8,7.2,4,7.2
		c1.5,0,3.3-0.3,3.7-1.7c3.4-14.1,11.8-25.6,14.4-25.6c0.8,0,1,0.7,1,1.6c0,3.8-2.7,11.7-2.7,16.7c0,5.4,2.3,9,7.1,9
		c5.3,0,10.6-6.5,14.2-15.9c1.1,8.8,3.5,15.9,7.3,15.9c4.6,0,12.9-9.8,17.9-20.1c1.9,0.3,4.9,0.2,7.7-1.8c-1.2,3.1-1.9,6.4-1.9,9.7
		c0,9.6,4.6,12.3,8.5,12.3c4.3,0,7.8-2.5,10.4-7.1c0.9,4.1,3.1,7,7.2,7c6.5,0,12-6.6,12-12C270.8,408.6,270.2,407.8,269.5,407.8z
		 M135.7,416.8c-2.6,0-3.6-2.6-3.6-6.5c0-6.8,4.6-18.1,9.6-18.1c2.1,0,3,2.5,3,5.6C144.6,404.6,140.2,416.8,135.7,416.8z
		 M224.9,396.5c-1.6-1.8-2.1-4.4-2.1-6.6c0-2.8,1-5.1,2.2-5.1s1.6,1.2,1.6,2.9C226.6,390.4,225.6,394.5,224.9,396.5z M245.1,416.8
		c-2.6,0-3.6-3-3.6-6.5c0-6.5,4.6-18.1,9.6-18.1c2.2,0,2.9,2.5,2.9,5.6C254,404.6,249.6,416.8,245.1,416.8z"/>
</g>
</svg>
