<svg width="107" height="21" viewBox="0 0 107 21" fill="none" xmlns="http://www.w3.org/2000/svg">
<path d="M39.0805 15.7144C40.9447 15.7144 42.8405 14.702 42.8405 12.3559C42.8405 10.4275 41.5766 9.68833 40.4075 9.12589L39.2858 8.61167C38.4801 8.226 38.0377 8.03316 38.0377 7.42252C38.0377 6.84401 38.4643 6.47442 39.191 6.47442C39.8388 6.47442 40.3601 6.7476 41.0711 7.35824C41.1817 7.43859 41.3239 7.39038 41.4029 7.27789L42.4456 6.0084C42.5404 5.87984 42.5246 5.73521 42.4298 5.6388C41.5134 4.67462 40.4233 4.14433 39.1121 4.14433C37.1846 4.14433 35.6205 5.28527 35.6205 7.39038C35.6205 9.14196 36.7265 9.99365 37.8956 10.5239L39.2384 11.1667C39.9336 11.4881 40.4075 11.697 40.4075 12.3559C40.4075 13.0629 39.8388 13.3843 39.0331 13.3843C38.1957 13.3843 37.5954 13.0308 36.8686 12.3077C36.7265 12.1952 36.6001 12.2434 36.5053 12.3559L35.4468 13.5772C35.3362 13.7057 35.3362 13.8343 35.4152 13.9307C36.0787 14.8306 37.3268 15.7144 39.0805 15.7144ZM44.6199 18.5748H46.5631C46.7053 18.5748 46.8159 18.4784 46.8159 18.3338V14.7181C47.3372 15.3448 48.0798 15.7144 49.0751 15.7144C51.2395 15.7144 52.7246 13.9307 52.7246 11.5845C52.7246 9.25445 51.2395 7.45466 49.0751 7.45466C47.9534 7.45466 47.1634 7.90461 46.6579 8.64381L46.6263 7.88854C46.6263 7.74391 46.5157 7.64749 46.3735 7.64749H44.6199C44.4777 7.64749 44.3829 7.74391 44.3829 7.88854V18.3338C44.3829 18.4784 44.4777 18.5748 44.6199 18.5748ZM48.5537 13.4807C47.511 13.4807 46.7843 12.7255 46.7843 11.5685C46.7843 10.4436 47.511 9.68833 48.5537 9.68833C49.5806 9.68833 50.3548 10.4436 50.3548 11.5845C50.3548 12.7415 49.5806 13.4807 48.5537 13.4807ZM57.9579 15.7144C59.048 15.7144 60.0433 15.393 60.7068 14.7181C60.849 14.5895 60.849 14.461 60.7858 14.3646L60.1381 13.4325C60.0433 13.3201 59.9801 13.2879 59.8537 13.3522C59.206 13.7218 58.6688 13.7861 58.1475 13.7861C57.0416 13.7861 56.3148 13.3683 56.0462 12.5166H60.5015C61.2124 12.5166 61.4178 12.0345 61.4178 11.231C61.4178 9.20624 60.0433 7.45466 57.6735 7.45466C55.2879 7.45466 53.6922 9.23838 53.6922 11.5524C53.6922 13.9468 55.4143 15.7144 57.9579 15.7144ZM56.0146 10.8132C56.2042 9.88116 56.8836 9.47942 57.6893 9.47942C58.495 9.47942 59.1112 9.86509 59.2692 10.8132H56.0146ZM66.6441 15.7144C67.7342 15.7144 68.7295 15.393 69.3931 14.7181C69.5352 14.5895 69.5352 14.461 69.472 14.3646L68.8243 13.4325C68.7295 13.3201 68.6663 13.2879 68.5399 13.3522C67.8922 13.7218 67.355 13.7861 66.8337 13.7861C65.7278 13.7861 65.001 13.3683 64.7324 12.5166H69.1877C69.8986 12.5166 70.104 12.0345 70.104 11.231C70.104 9.20624 68.7295 7.45466 66.3597 7.45466C63.9741 7.45466 62.3784 9.23838 62.3784 11.5524C62.3784 13.9468 64.1005 15.7144 66.6441 15.7144ZM64.7009 10.8132C64.8904 9.88116 65.5698 9.47942 66.3755 9.47942C67.1812 9.47942 67.7974 9.86509 67.9554 10.8132H64.7009ZM75.1723 15.7144C76.4204 15.7144 77.4631 15.152 78.1267 14.2682C78.2215 14.1557 78.2057 14.0271 78.1109 13.9307L77.0208 12.8701C76.8944 12.7415 76.7206 12.7415 76.61 12.854C76.1834 13.2558 75.7727 13.4647 75.2513 13.4647C74.0822 13.4647 73.3871 12.5648 73.3871 11.5363C73.3871 10.5239 74.0822 9.7044 75.2197 9.7044C75.7569 9.7044 76.1676 9.89723 76.5784 10.315C76.7048 10.4275 76.8786 10.4275 77.005 10.299L78.0951 9.23838C78.1899 9.14196 78.2057 8.99734 78.1109 8.90092C77.4473 8.01709 76.4046 7.45466 75.1091 7.45466C72.7709 7.45466 71.0647 9.22231 71.0647 11.5363C71.0647 13.8986 72.8025 15.7144 75.1723 15.7144ZM84.2359 7.45466C83.13 7.45466 82.419 8.01709 81.9767 8.82057V4.27288C81.9767 4.12826 81.8661 4.03184 81.7239 4.03184H79.7965C79.6543 4.03184 79.5595 4.12826 79.5595 4.27288V15.2805C79.5595 15.4252 79.6543 15.5216 79.7965 15.5216H81.7239C81.8661 15.5216 81.9767 15.4252 81.9767 15.2805V11.2953C81.9767 10.2508 82.4822 9.7044 83.3196 9.7044C84.1727 9.7044 84.6151 10.2508 84.6151 11.2953V15.2805C84.6151 15.4252 84.7257 15.5216 84.8678 15.5216H86.7795C86.9217 15.5216 87.0323 15.4252 87.0323 15.2805V10.7168C87.0323 8.65988 85.8474 7.45466 84.2359 7.45466ZM90.0335 6.39407C90.7918 6.39407 91.3448 5.79949 91.3448 5.04422C91.3448 4.30502 90.7918 3.71045 90.0335 3.71045C89.2751 3.71045 88.7064 4.30502 88.7064 5.04422C88.7064 5.79949 89.2751 6.39407 90.0335 6.39407ZM89.0539 15.5216H91.013C91.1552 15.5216 91.25 15.4252 91.25 15.2805V7.88854C91.25 7.74391 91.1552 7.64749 91.013 7.64749H89.0539C88.9118 7.64749 88.817 7.74391 88.817 7.88854V15.2805C88.817 15.4252 88.9118 15.5216 89.0539 15.5216ZM93.7905 15.5216H95.7337C95.8759 15.5216 95.9865 15.4252 95.9865 15.2805V9.5437H97.5348C97.677 9.5437 97.7718 9.44729 97.7718 9.30266V7.88854C97.7718 7.74391 97.677 7.64749 97.5348 7.64749H95.9865V6.86008C95.9865 6.32979 96.1603 5.94412 96.9028 5.94412C97.0766 5.94412 97.2978 5.99233 97.5664 6.04054C97.677 6.05661 97.7718 6.04054 97.7718 5.92805V4.30502C97.7718 4.20861 97.7244 4.09612 97.6296 4.04791C97.1556 3.80687 96.808 3.77473 96.3341 3.77473C94.612 3.77473 93.5535 4.61034 93.5535 6.53869V7.64749H92.6372C92.495 7.64749 92.4002 7.74391 92.4002 7.88854V9.30266C92.4002 9.44729 92.495 9.5437 92.6372 9.5437H93.5535V15.2805C93.5535 15.4252 93.6483 15.5216 93.7905 15.5216ZM100.271 18.5748H102.151C102.277 18.5748 102.388 18.5105 102.435 18.382L106.543 7.92068C106.606 7.74391 106.511 7.64749 106.338 7.64749H104.379C104.252 7.64749 104.126 7.71177 104.078 7.84033L102.372 12.6612L100.666 7.84033C100.619 7.71177 100.492 7.64749 100.366 7.64749H98.4068C98.233 7.64749 98.1382 7.74391 98.2014 7.92068L101.203 15.5377L100.066 18.2855C99.9866 18.4784 100.081 18.5748 100.271 18.5748Z" fill="#1C2C40"/>
<path fill-rule="evenodd" clip-rule="evenodd" d="M6.19887 7.88096L6.92979 6.91931C7.26113 6.48337 7.80603 6.27846 8.33433 6.39115C8.74337 6.47838 9.00586 6.88847 8.92062 7.3071C8.91357 7.34174 8.90419 7.37585 8.89262 7.40919C8.28541 9.15194 8.09211 10.303 8.31271 10.8624C9.2209 9.75802 13.8606 2.55659 15.327 2.21474C15.8165 2.10061 16.3038 2.41426 16.4153 2.91532C16.4531 3.08484 16.4436 3.26178 16.3881 3.42609C15.0025 7.52632 14.4159 10.0056 14.6282 10.8639C15.36 9.81011 16.447 8.39175 17.8891 6.60885C18.4307 5.93916 19.295 5.63904 20.123 5.83306C20.8512 6.00367 21.3063 6.74609 21.1397 7.49129C21.1386 7.49619 21.1375 7.50108 21.1363 7.50597C20.6345 9.64197 20.4485 10.8916 20.5783 11.2551C20.6356 11.2104 20.6937 11.1647 20.7528 11.1178C21.4142 10.5924 22.2424 10.3363 23.0773 10.399L29.5564 10.8856L25.2638 11.3851C24.0655 11.5246 22.9678 12.1383 22.2057 13.095L21.1785 14.3844C20.8422 14.8065 20.3255 15.0338 19.7948 14.9929C19.2675 14.9523 18.8316 14.5565 18.7295 14.0256C18.4787 12.7216 18.4385 11.1823 18.609 9.40788C17.3201 11.3789 16.2017 14.2136 15.254 17.912C15.091 18.5479 14.5295 18.9913 13.8871 18.9913C13.2737 18.9913 12.7712 18.4926 12.7524 17.8651L12.4684 8.4083L9.72124 13.9489C9.43534 14.5255 8.80624 14.8332 8.18826 14.6987C7.53355 14.5562 6.99195 14.0879 6.74529 13.4511L6.43747 12.6563C6.00189 11.5318 5.01882 10.7259 3.85141 10.5365C2.56761 10.3282 1.2838 10.1198 0 9.91152L2.85961 9.70453C4.17515 9.6093 5.38916 8.94634 6.19887 7.88096Z" fill="#2137FC"/>
</svg>
