<svg width="665" height="200" viewBox="0 0 665 200" fill="none" xmlns="http://www.w3.org/2000/svg">
<path d="M8.2 74.4L5.6 90.9H31.9C11.2 109.6 0 138.7 0 157.5C0 171.4 4.4 182.2 13.3 189.6C20.4 195.6 30.2 198.9 42.4 199.7L43.6 199.8V194L42.7 193.8C31.6 191.3 13.1 183.9 12.9 161.4C12.8 144.6 30.1 113.2 50.1 100L44.8 130.5H61.7L71.2 74.5L8.2 74.4Z" fill="#0096FF"/>
<path d="M24.6001 0C15.9001 0 8.8001 7.1 8.7001 15.7L8.1001 59.9L17.2001 60H26.2001L26.7001 18.1H101.1L101.6 131.6H77.8001L74.7001 149.7H103.8C112.5 149.7 119.7 141.8 119.8 133.1L119.5 0L24.6001 0Z" fill="#0096FF"/>
<path d="M277.3 117C277.3 122.7 275.5 127.1 271.9 130.2C268.2 133.4 264 135 258.8 135C254.8 135 251.5 134.1 249 132.2C246.5 130.3 244.6 127.8 243.5 124.7C242.3 121.5 241.7 117.9 241.7 114V68H223.3V118.3C223.3 128.6 226 136.8 231.4 142.6C236.8 148.5 243.9 151.5 252.5 151.5C259 151.5 264.6 150 269.3 147C272.4 145 275.1 142.7 277.2 140.3V150H295.6V68H277.2V117H277.3Z" fill="#003C46"/>
<path d="M349.7 66.3C344.5 66.3 339.5 68 334.8 71.2C331.7 73.3 329.1 75.9 327.1 78.9V68H308.5V150H327.1V104.9C327.1 101 328.1 97.6 329.9 94.8C331.8 92 334.2 89.7 337.1 88.2C341.4 85.9 346.1 85.4 350.2 86.4C351.6 86.7 352.7 87.1 353.6 87.6L355.2 88.4L360 68.6L359 68.1C356.7 66.8 353.7 66.3 349.7 66.3Z" fill="#003C46"/>
<path d="M429.9 70.9C425.7 67.8 419.9 66.2 412.5 66.2C406.6 66.2 401.2 67.7 396.4 70.7C393.1 72.7 390.3 75 388.1 77.5V67.8H369.7V149.8H388V100.5C388 97.4 388.8 94.5 390.5 91.9C392.2 89.3 394.5 87.2 397.4 85.6C400.3 84 403.6 83.2 407.5 83.2C411.5 82.9 414.5 83.5 416.7 85.1C418.9 86.6 420.4 88.7 421.3 91.5C422.3 94.4 422.7 97.6 422.7 101.3V149.9H441V100.3C441 94.2 440.2 88.5 438.6 83.4C437 78.2 434.1 74 429.9 70.9Z" fill="#003C46"/>
<path d="M472.2 68H453.8V150H472.2V68Z" fill="#003C46"/>
<path d="M568.7 68H550.3V150H568.7V68Z" fill="#003C46"/>
<path d="M650.6 83.4C649 78.2 646 74 641.9 70.9C637.7 67.8 631.9 66.2 624.5 66.2C618.6 66.2 613.2 67.7 608.4 70.7C605.1 72.7 602.3 75 600.1 77.5V67.8H581.7V149.8H600V100.5C600 97.4 600.8 94.5 602.5 91.9C604.2 89.3 606.5 87.2 609.4 85.6C612.3 84 615.6 83.2 619.5 83.2C623.4 82.9 626.5 83.5 628.7 85.1C630.9 86.6 632.4 88.7 633.3 91.5C634.3 94.4 634.7 97.6 634.7 101.3V149.9H653V100.3C653 94.1 652.2 88.5 650.6 83.4Z" fill="#003C46"/>
<path d="M193.4 47.8H175V68H158.6V86H175V128.3L175.1 128.2C176 143.9 183.1 150 199.7 150C205.1 150 208.1 149.7 208.2 149.7L209.5 149.6V132.7L207.9 132.8C207.9 132.8 204.4 133.1 202.9 133.1C195 133.1 193.4 131.3 193.4 122.3V85.9001H211.8V67.9001H193.4V47.8Z" fill="#003C46"/>
<path d="M518.4 47.8H500V68H483.6V86H500V128.3L500.1 128.2C501 143.9 508.1 150 524.7 150C530.1 150 533.1 149.7 533.2 149.7L534.5 149.6V132.7L532.9 132.8C532.9 132.8 529.4 133.1 527.9 133.1C520 133.1 518.4 131.3 518.4 122.3V85.9001H536.8V67.9001H518.4V47.8Z" fill="#003C46"/>
<path d="M463 54.3C468.192 54.3 472.4 50.0915 472.4 44.9C472.4 39.7085 468.192 35.5 463 35.5C457.809 35.5 453.6 39.7085 453.6 44.9C453.6 50.0915 457.809 54.3 463 54.3Z" fill="#003C46"/>
<path d="M559.5 54.3C564.692 54.3 568.9 50.0915 568.9 44.9C568.9 39.7085 564.692 35.5 559.5 35.5C554.309 35.5 550.1 39.7085 550.1 44.9C550.1 50.0915 554.309 54.3 559.5 54.3Z" fill="#003C46"/>
<path d="M650.21 47.7999C650.21 46.4999 650.54 45.2799 651.19 44.1399C651.84 42.9999 652.74 42.0999 653.88 41.4399C655.02 40.7799 656.25 40.45 657.56 40.45C658.87 40.45 660.08 40.78 661.22 41.43C662.36 42.08 663.26 42.9799 663.92 44.1199C664.58 45.2599 664.91 46.4899 664.91 47.7999C664.91 49.1099 664.59 50.29 663.96 51.41C663.33 52.54 662.44 53.4399 661.3 54.1199C660.16 54.7999 658.91 55.1399 657.56 55.1399C656.21 55.1399 654.97 54.8 653.83 54.13C652.69 53.46 651.8 52.56 651.17 51.43C650.53 50.3 650.22 49.1 650.22 47.81L650.21 47.7999ZM651.23 47.7999C651.23 48.9299 651.51 49.9799 652.08 50.9599C652.65 51.9399 653.42 52.71 654.4 53.27C655.38 53.83 656.43 54.11 657.55 54.11C658.67 54.11 659.73 53.8299 660.7 53.2599C661.67 52.6899 662.44 51.9299 663.01 50.9599C663.58 49.9899 663.86 48.94 663.86 47.79C663.86 46.64 663.58 45.6099 663.01 44.6399C662.44 43.6699 661.68 42.9 660.71 42.33C659.74 41.76 658.69 41.4799 657.54 41.4799C656.39 41.4799 655.36 41.76 654.39 42.33C653.42 42.9 652.65 43.66 652.08 44.63C651.51 45.6 651.23 46.6499 651.23 47.7999ZM660.53 46.0299C660.53 46.5499 660.39 47.01 660.11 47.41C659.83 47.81 659.44 48.1099 658.94 48.2999L661.26 52.16H659.62L657.6 48.7H656.28V52.16H654.83V43.4599H657.38C658.46 43.4599 659.25 43.67 659.76 44.09C660.26 44.51 660.52 45.16 660.52 46.02L660.53 46.0299ZM656.29 47.5H657.34C657.86 47.5 658.28 47.36 658.59 47.09C658.91 46.82 659.06 46.48 659.06 46.06C659.06 45.57 658.92 45.2199 658.64 45.0099C658.36 44.7999 657.92 44.6899 657.31 44.6899H656.27V47.49L656.29 47.5Z" fill="#003C46"/>
</svg>
